<?xml version="1.0" standalone="no"?>
<!DOCTYPE svg PUBLIC "-//W3C//DTD SVG 20010904//EN"
 "http://www.w3.org/TR/2001/REC-SVG-20010904/DTD/svg10.dtd">
<svg version="1.0" xmlns="http://www.w3.org/2000/svg"
 width="2000.000000pt" height="2000.000000pt" viewBox="0 0 2000.000000 2000.000000"
 preserveAspectRatio="xMidYMid meet">

<g transform="translate(0.000000,2000.000000) scale(0.100000,-0.100000)"
fill="#000000" stroke="none">
<path d="M9890 18813 c-58 -1 -348 -7 -645 -13 -644 -13 -1248 -37 -1392 -56
-47 -6 -62 -28 -38 -54 14 -15 15 -51 9 -291 -3 -151 -1 -503 5 -784 6 -280
14 -661 17 -845 2 -184 7 -358 10 -387 7 -65 35 -96 112 -120 68 -21 177 -22
953 -10 l516 8 6 -118 c9 -195 59 -285 177 -320 60 -17 22 -18 805 13 215 8
559 19 765 23 421 10 458 15 516 77 53 56 58 98 51 449 -4 170 -16 432 -27
580 -11 149 -23 352 -27 451 -7 221 13 609 33 639 33 46 -1 125 -64 152 -48
21 -176 20 -299 -1 -50 -9 -185 -23 -300 -31 -219 -15 -832 -40 -838 -34 -2 2
-6 128 -10 279 -6 226 -10 278 -23 293 -8 9 -20 17 -27 17 -7 0 -10 11 -7 30
7 50 -10 60 -97 58 -42 -1 -123 -3 -181 -5z m249 -102 c-9 -14 -7 -236 10
-932 12 -503 26 -1014 32 -1136 14 -320 7 -340 -115 -304 -67 20 -82 21 -157
11 -102 -13 -224 -15 -894 -11 -485 3 -515 4 -451 18 81 17 126 38 126 58 0
24 -17 26 -77 10 -89 -24 -292 -30 -382 -11 -76 16 -91 15 -91 -9 0 -15 74
-41 158 -55 l47 -8 -55 -1 c-30 -1 -102 -8 -160 -16 -117 -15 -163 -6 -179 37
-4 13 -14 334 -20 713 -11 641 -24 1192 -36 1481 l-5 121 543 7 c298 4 774 16
1057 25 714 25 663 25 649 2z m1476 -605 c25 -16 25 -19 11 -35 -19 -21 -20
-35 -3 -53 10 -10 11 -33 4 -108 -17 -174 -10 -827 13 -1195 11 -187 24 -378
28 -425 10 -102 -1 -197 -28 -250 -29 -57 -115 -85 -296 -95 l-99 -6 50 24
c59 29 100 69 92 91 -9 22 -40 20 -62 -4 -39 -43 -151 -62 -234 -39 -8 2 -17
-4 -19 -14 -2 -12 8 -22 37 -35 l41 -17 -132 -3 c-279 -5 -917 -32 -1013 -42
-164 -17 -253 -14 -325 10 -141 47 -173 91 -178 248 l-4 102 101 0 101 0 0
-29 c0 -17 5 -33 10 -36 6 -4 50 -8 98 -9 48 -1 223 -9 389 -16 427 -20 806 0
1113 56 91 17 110 26 110 54 0 38 -21 41 -156 20 -377 -57 -676 -74 -989 -56
-160 8 -209 14 -181 20 82 16 147 47 167 80 19 29 20 42 14 180 -4 82 -3 146
1 144 79 -42 179 -68 261 -68 l63 0 0 -32 c0 -46 18 -105 34 -111 7 -3 19 -1
27 3 11 7 11 17 1 55 -21 80 -18 91 33 105 51 14 147 69 185 106 l26 24 97
-71 c95 -69 128 -81 135 -47 2 12 -27 37 -97 84 -56 37 -101 70 -101 74 0 4 6
13 14 19 37 31 97 234 78 265 -3 5 5 6 19 2 13 -5 54 -10 91 -13 62 -5 67 -4
83 20 12 19 14 30 6 45 -20 37 -62 38 -81 2 -5 -10 -18 -17 -27 -15 -10 2 -34
7 -55 10 -32 5 -38 10 -51 50 -20 56 -59 109 -103 135 l-33 21 31 50 c16 27
52 74 79 103 51 56 60 82 32 93 -22 8 -95 -72 -148 -162 -22 -39 -42 -62 -49
-58 -6 4 -56 9 -111 13 l-99 5 -13 73 c-16 98 -40 147 -73 147 -29 0 -30 -8
-2 -85 11 -30 22 -71 24 -90 l3 -34 -63 -13 c-52 -10 -120 -34 -198 -69 -6 -3
-18 2 -26 10 -13 12 -16 59 -20 248 -3 128 -4 234 -3 235 2 3 35 5 430 29 143
9 352 22 465 29 113 7 206 12 206 11 9 -7 61 -870 77 -1266 l12 -305 28 -3 27
-3 0 233 c0 347 -22 862 -51 1203 -12 148 -14 155 -45 155 -19 0 -24 5 -24 24
0 13 -6 28 -12 34 -9 7 -164 7 -483 1 -258 -4 -506 -8 -551 -9 l-81 0 -6 57
c-3 32 -5 58 -4 59 1 1 88 4 192 8 373 13 926 49 1015 66 65 13 144 6 175 -14z
m-1010 -781 c9 -18 19 -20 78 -17 169 9 271 -69 284 -217 14 -151 -83 -309
-233 -382 -67 -33 -73 -34 -189 -34 -111 0 -125 2 -182 29 -100 46 -96 34
-101 285 l-5 219 44 32 c54 40 115 68 194 91 74 21 97 20 110 -6z m-766 -1081
c2 -2 -12 -4 -32 -4 -20 0 -37 4 -37 10 0 8 58 3 69 -6z"/>
<path d="M9240 18479 c-565 -14 -1201 -58 -1228 -86 -13 -13 -13 -27 1 -131
50 -359 67 -649 67 -1184 l0 -417 30 -15 c33 -16 313 -13 1190 14 665 20 647
18 666 48 15 24 16 46 0 346 -9 177 -21 458 -27 626 -13 335 -7 732 10 738 17
6 13 59 -5 66 -19 7 -281 5 -704 -5z m624 -80 c-4 -6 -9 -160 -13 -342 l-6
-331 -82 146 c-80 141 -98 164 -120 150 -6 -4 -60 -106 -121 -227 -181 -359
-283 -515 -337 -515 -30 0 -67 43 -139 160 -55 88 -57 93 -40 111 14 15 14 21
4 34 -8 10 -17 12 -29 5 -15 -7 -31 9 -97 103 -159 225 -247 307 -329 307 -71
0 -102 -30 -168 -160 -32 -63 -93 -182 -135 -263 l-77 -148 -6 188 c-10 276
-45 496 -111 685 -11 33 -18 61 -17 62 2 2 279 11 614 20 336 9 651 18 700 19
286 8 516 6 509 -4z m-1218 -523 c61 -29 133 -107 215 -233 57 -89 58 -93 38
-104 -33 -17 -123 -23 -163 -9 -20 6 -58 28 -83 47 l-47 36 -15 -22 c-46 -65
-73 -89 -115 -101 -58 -16 -111 -3 -195 47 -2 1 14 33 35 70 22 37 56 102 77
144 49 101 101 149 160 149 23 0 65 -11 93 -24z m1047 7 c31 -35 151 -278 157
-320 6 -40 5 -44 -17 -49 -12 -4 -35 -3 -50 1 -32 7 -83 52 -83 72 0 7 -2 13
-4 13 -2 0 -11 3 -20 6 -12 4 -21 -6 -35 -38 -22 -52 -39 -67 -83 -74 -24 -4
-40 0 -61 16 -41 32 -37 76 16 169 24 42 51 95 61 118 20 45 71 103 91 103 6
0 19 -8 28 -17z m-816 -675 c19 -16 16 -48 -5 -48 -29 0 -62 29 -62 55 0 23 2
24 27 14 15 -6 33 -15 40 -21z"/>
<path d="M8274 16519 c-14 -23 26 -29 191 -26 143 2 170 4 170 17 0 13 -28 15
-177 18 -123 2 -179 -1 -184 -9z"/>
<path d="M11250 16114 c-42 -9 -114 -13 -205 -12 -116 3 -140 1 -140 -11 0
-24 53 -33 200 -35 136 -1 237 13 251 35 7 12 -14 39 -30 38 -6 -1 -40 -8 -76
-15z"/>
<path d="M15495 18310 c-41 -16 -403 -433 -559 -644 -132 -177 -313 -465 -320
-508 -1 -7 -6 -19 -11 -27 -9 -16 -3 -23 196 -191 l117 -98 -42 -12 c-42 -11
-43 -11 -122 43 -43 29 -107 71 -141 91 -61 38 -62 38 -88 19 -14 -10 -75 -87
-136 -171 -61 -83 -115 -154 -119 -157 -5 -3 -138 -44 -297 -91 -918 -272
-2004 -611 -3623 -1131 -1283 -412 -2354 -753 -3040 -968 -239 -75 -468 -147
-509 -161 -41 -13 -76 -22 -79 -20 -2 2 6 48 18 103 122 562 96 1458 -55 1892
-95 272 -210 427 -420 566 -155 103 -297 166 -709 315 -149 54 -397 146 -551
204 -514 196 -1009 345 -1317 397 -156 26 -402 35 -533 20 -442 -51 -819 -320
-1396 -993 -428 -499 -582 -767 -583 -1013 0 -127 26 -189 113 -275 111 -109
215 -153 986 -414 165 -56 341 -114 390 -128 l90 -27 1 -113 c0 -98 4 -122 27
-181 50 -128 136 -230 270 -320 68 -46 187 -98 268 -116 66 -16 237 -13 304 4
142 36 282 133 355 246 l36 56 325 -124 c178 -68 528 -201 776 -295 249 -94
452 -172 450 -174 -1 -1 -182 -59 -402 -129 -383 -122 -518 -165 -1510 -485
-242 -77 -859 -281 -1372 -452 l-932 -310 -16 -53 -17 -52 65 -219 c36 -120
109 -365 162 -544 53 -179 179 -605 281 -947 101 -342 184 -629 184 -638 0
-19 3 -14 -365 -490 -390 -502 -645 -848 -645 -874 0 -6 -9 -11 -19 -11 -30 0
-32 -27 -7 -90 71 -174 238 -340 525 -521 56 -35 193 -124 304 -197 363 -240
491 -278 602 -180 19 16 78 79 132 139 53 60 99 107 102 104 6 -7 -4 26 296
-990 305 -1035 480 -1611 585 -1919 l30 -90 -37 -30 c-149 -118 -269 -297
-324 -485 -12 -42 -12 -44 12 -61 64 -49 62 -35 29 -140 -37 -115 -84 -309
-100 -407 l-12 -71 -51 24 c-65 30 -93 30 -110 2 -58 -96 -124 -198 -144 -226
l-24 -32 -67 37 c-37 20 -107 62 -157 91 -244 148 -354 171 -467 97 -34 -23
-196 -216 -266 -317 -133 -194 -169 -335 -112 -438 14 -25 34 -46 44 -48 11
-3 105 -61 210 -131 587 -392 1169 -726 1921 -1103 176 -88 388 -195 470 -238
170 -89 261 -120 346 -120 117 0 165 35 291 212 174 245 220 342 221 463 1
143 -85 231 -363 370 -63 31 -251 131 -417 222 l-302 165 44 54 c24 29 57 81
72 114 15 33 31 60 34 60 8 0 47 -100 51 -130 2 -18 8 -24 23 -23 175 18 2367
672 4390 1308 632 199 2026 630 2632 813 l262 79 -78 -86 c-111 -124 -189
-225 -276 -355 -79 -118 -205 -357 -205 -388 0 -37 27 -16 64 49 67 118 262
404 353 518 136 171 467 500 502 500 4 0 54 -56 112 -125 301 -360 677 -676
1134 -953 151 -91 501 -267 660 -331 97 -39 110 -47 113 -71 3 -24 1 -25 -25
-19 -55 14 -260 86 -353 126 -286 121 -591 308 -849 521 -233 191 -527 483
-717 710 -31 37 -56 57 -70 57 -15 0 -54 -38 -131 -127 -214 -250 -384 -474
-544 -723 -125 -193 -109 -176 -149 -157 -39 20 -56 21 -66 5 -10 -15 32 -48
62 -48 23 0 24 -1 11 -27 -8 -16 -15 -43 -15 -61 -1 -30 6 -37 75 -85 130 -89
122 -76 80 -132 -21 -26 -37 -52 -37 -56 0 -14 212 -234 344 -358 147 -138
296 -258 436 -353 73 -49 104 -76 101 -87 -2 -9 -4 -68 -5 -132 l-1 -116 45
-89 c25 -49 58 -104 74 -122 36 -41 115 -81 266 -138 126 -46 633 -275 830
-374 155 -78 318 -140 368 -140 41 0 80 22 113 63 41 54 505 993 539 1094 40
116 48 245 18 298 -45 83 -124 137 -280 194 l-26 10 17 58 c34 109 34 110 4
138 -15 14 -36 25 -45 25 -15 0 -18 9 -18 54 l0 53 -117 48 c-543 220 -1077
570 -1517 994 -180 173 -285 286 -273 292 33 18 3985 1182 5937 1749 967 281
991 288 1009 303 9 7 28 18 44 25 19 8 27 19 27 37 0 31 -161 615 -285 1035
-207 700 -383 1265 -509 1635 -56 166 -191 548 -211 598 -6 15 -1 17 38 17
156 0 355 85 488 208 158 146 245 336 256 558 8 149 -12 247 -77 379 -114 235
-321 398 -581 460 -74 17 -260 20 -276 4 -7 -7 -12 -1 -17 21 -5 27 -2 36 19
52 61 47 89 161 62 243 -25 71 -70 120 -144 157 -55 27 -80 33 -152 36 -79 4
-158 -8 -223 -33 -14 -5 -20 3 -32 47 -145 528 -279 967 -412 1352 l-75 218
60 74 c34 40 61 80 61 87 0 7 5 18 11 24 26 26 -2 49 -119 98 -64 26 -122 53
-129 59 -9 9 -193 507 -193 525 0 2 12 -7 28 -21 46 -43 95 -68 136 -68 57 0
108 57 137 150 11 38 19 77 17 87 -2 15 -107 77 -160 95 -9 4 2 26 36 77 37
53 54 70 65 65 9 -4 37 -8 64 -10 40 -3 52 1 81 26 l33 30 74 -63 c98 -84 225
-220 273 -293 55 -82 86 -114 111 -114 51 0 268 258 464 554 69 104 130 195
136 202 7 10 5 18 -5 28 -35 33 -429 187 -577 226 l-43 11 42 77 41 77 -47 67
c-51 73 -110 129 -168 159 -56 29 -128 51 -149 46 -13 -4 -32 14 -71 67 -492
662 -1074 1227 -1629 1579 -111 70 -112 71 -144 57z m254 -216 c2 -2 -44 -54
-102 -116 -276 -297 -582 -674 -742 -915 -26 -40 -51 -73 -54 -73 -7 0 -57 33
-148 97 l-63 44 93 117 c52 64 162 209 247 322 210 281 304 402 438 562 l114
137 107 -86 c58 -48 108 -88 110 -89z m-12108 -409 c220 -33 498 -106 814
-215 500 -171 1059 -382 1365 -515 331 -143 425 -200 546 -327 188 -199 275
-438 341 -943 22 -170 25 -681 5 -835 -30 -232 -44 -301 -61 -295 -9 4 -241
92 -516 196 -275 104 -511 194 -525 200 -66 28 -1476 567 -1855 709 -77 29
-141 54 -143 55 -2 1 36 102 43 113 2 2 93 -31 315 -116 58 -22 277 -108 488
-191 986 -389 1163 -459 1392 -548 420 -163 770 -293 790 -293 23 0 35 30 18
46 -23 22 -742 306 -1778 704 -539 206 -1172 454 -1191 465 -3 3 22 80 57 172
181 473 374 1157 348 1230 -11 31 -64 56 -253 118 -193 64 -279 79 -451 79
-150 1 -157 0 -212 -27 -66 -33 -132 -101 -188 -196 -137 -234 -344 -597 -417
-732 -47 -88 -89 -159 -93 -159 -4 0 -72 24 -151 54 -79 30 -243 87 -364 127
-121 40 -222 74 -224 76 -7 5 176 210 319 357 236 241 487 456 639 546 135 80
311 138 486 159 103 13 323 6 456 -14z m-86 -260 c50 -8 131 -26 179 -40 98
-28 306 -104 319 -115 5 -5 -18 -84 -51 -176 -33 -93 -133 -389 -222 -659 -89
-269 -165 -493 -169 -498 -4 -4 -86 25 -182 64 -95 39 -320 129 -499 200 -179
71 -335 134 -348 139 -23 10 -22 12 79 208 56 108 147 285 202 392 186 365
260 448 431 485 81 18 153 18 261 0z m11113 -579 c54 -45 79 -72 74 -80 -5 -6
-30 -40 -57 -76 -50 -66 -179 -222 -246 -295 -20 -22 -85 -94 -145 -160 -251
-276 -392 -453 -487 -610 -30 -50 -61 -91 -69 -93 -22 -4 -103 72 -126 119
l-21 41 77 102 c42 55 131 160 197 232 174 188 446 543 620 806 59 89 72 104
85 95 8 -7 52 -43 98 -81z m500 -184 c70 -49 151 -103 180 -121 28 -18 52 -36
52 -40 0 -5 -27 -16 -60 -26 -53 -16 -62 -16 -77 -3 -10 8 -54 46 -98 84 -44
38 -109 92 -144 119 l-63 50 28 12 c16 7 35 12 42 13 8 0 71 -40 140 -88z
m-13168 -184 c114 -51 218 -95 408 -174 l32 -13 -31 -64 -32 -64 -393 133
c-265 90 -394 129 -394 120 0 -7 35 -27 78 -44 194 -77 664 -270 668 -275 3
-2 -20 -58 -50 -123 -97 -212 -216 -518 -216 -555 0 -29 171 -95 479 -183
l155 -45 50 46 c221 198 444 270 744 239 l84 -8 -4 23 c-5 38 -70 52 -233 53
-107 0 -155 -4 -205 -18 -151 -43 -327 -152 -395 -245 -16 -22 -35 -41 -40
-41 -6 0 -102 31 -213 69 -111 38 -244 79 -295 91 l-92 21 157 317 c87 174
161 318 166 320 4 1 145 -51 313 -117 167 -65 409 -158 537 -207 213 -81 232
-90 225 -108 -14 -43 -9 -71 14 -74 17 -3 25 5 37 32 8 20 17 36 20 36 2 0
197 -72 433 -159 380 -141 1773 -651 2008 -736 265 -95 621 -229 629 -236 24
-21 -54 -321 -114 -445 -131 -268 -307 -301 -725 -134 -66 27 -175 71 -242 99
-67 28 -289 114 -495 191 -205 78 -447 170 -538 205 -91 34 -235 89 -320 121
-85 32 -156 58 -158 59 -1 1 4 31 13 66 54 231 -47 478 -253 612 -125 82 -207
104 -414 114 -130 6 -221 -11 -329 -63 -97 -47 -211 -160 -254 -254 -16 -36
-30 -67 -31 -68 -2 -4 -369 123 -679 235 -265 96 -548 208 -629 251 -189 98
-248 241 -181 437 60 177 180 386 341 596 l75 98 77 -35 c42 -20 138 -63 212
-96z m15456 34 c64 -41 151 -133 160 -169 3 -12 -2 -32 -11 -46 l-17 -26 -66
41 c-99 60 -222 150 -222 162 0 17 63 76 80 76 9 0 44 -17 76 -38z m-3322 -44
c-15 -25 -140 -185 -262 -335 -112 -138 -128 -153 -170 -167 -26 -8 -252 -78
-502 -156 -250 -78 -612 -190 -805 -250 -2327 -724 -3918 -1213 -4805 -1478
l-265 -80 -5 42 c-14 110 -128 168 -230 116 -67 -34 -88 -105 -50 -168 13 -21
31 -35 51 -39 21 -4 27 -8 18 -13 -12 -7 -192 -60 -202 -60 -2 0 -4 19 -4 43
-1 81 -56 153 -143 190 -24 10 -30 16 -20 20 14 6 1369 440 2175 697 204 65
575 183 825 263 1226 392 2697 858 3350 1061 377 117 1045 325 1048 326 2 0 0
-6 -4 -12z m3276 -126 c51 -39 105 -80 121 -89 34 -20 35 -29 10 -62 l-19 -24
-132 83 c-73 46 -145 94 -159 106 l-26 23 34 35 c33 34 35 35 56 18 12 -9 64
-50 115 -90z m-1736 -2 c77 -44 143 -81 146 -82 4 -2 20 -50 37 -108 l30 -105
-38 -60 c-21 -33 -41 -60 -46 -62 -4 -1 -35 30 -68 69 -33 40 -127 140 -209
225 -95 98 -143 155 -135 158 58 21 126 44 134 44 6 1 73 -35 149 -79z m1626
-85 c35 -29 94 -68 130 -87 36 -18 67 -34 68 -35 6 -3 -58 -93 -66 -93 -30 0
-231 121 -306 184 l-29 24 42 51 43 51 26 -20 c15 -12 56 -45 92 -75z m-14663
-41 c65 -25 302 -115 527 -200 225 -84 411 -155 413 -158 4 -4 -24 -104 -32
-114 -1 -1 -83 27 -181 64 -152 56 -567 206 -832 301 -42 15 -71 31 -68 37 35
86 49 116 52 116 2 0 56 -21 121 -46z m14484 -30 c49 -52 146 -119 222 -155
l66 -30 -27 -39 c-15 -22 -31 -39 -36 -40 -34 -1 -340 206 -329 223 14 23 58
77 64 77 3 0 21 -16 40 -36z m-64 -125 c59 -52 228 -169 244 -169 17 0 8 -25
-20 -59 l-28 -34 -74 36 c-68 33 -242 137 -263 157 -8 8 66 120 79 120 2 0 30
-23 62 -51z m-806 -9 c46 -22 86 -46 90 -53 4 -6 48 -122 97 -257 50 -135 95
-258 101 -273 10 -26 7 -32 -63 -105 l-74 -77 -57 28 c-41 20 -60 25 -70 17
-10 -8 -17 3 -33 47 -52 143 -192 542 -192 548 0 16 96 164 107 165 6 0 49
-18 94 -40z m760 -162 c68 -46 143 -92 167 -102 23 -10 42 -22 42 -25 0 -3 -9
-17 -20 -31 l-19 -25 -93 49 c-51 27 -130 69 -175 93 l-82 44 27 39 c15 22 28
39 28 40 1 0 57 -37 125 -82z m-397 3 c55 -23 105 -41 111 -41 6 0 12 -13 12
-30 0 -16 8 -38 17 -49 15 -16 16 -23 5 -43 -19 -37 -90 -141 -112 -166 l-21
-22 -68 191 c-37 105 -68 196 -68 201 0 6 6 8 13 5 6 -3 57 -24 111 -46z m305
-90 c53 -32 126 -75 164 -96 l67 -37 -22 -28 c-19 -23 -26 -25 -38 -15 -8 7
-39 20 -67 29 -48 16 -158 82 -222 134 -24 19 -24 21 -8 46 10 14 20 26 24 26
3 0 49 -26 102 -59z m-3329 4 c0 -2 -27 -35 -60 -71 -34 -37 -60 -74 -58 -83
4 -22 192 -163 423 -316 235 -155 355 -226 587 -342 l169 -86 -73 -43 c-256
-152 -359 -310 -518 -794 -98 -298 -160 -438 -274 -617 -37 -57 -95 -149 -131
-205 -132 -207 -175 -332 -176 -503 0 -212 105 -465 304 -735 101 -135 362
-391 551 -540 303 -238 367 -303 431 -435 48 -98 67 -190 67 -315 0 -144 -21
-256 -107 -595 -91 -360 -116 -503 -116 -666 0 -198 30 -339 108 -496 148
-300 445 -504 898 -618 306 -77 526 -99 1015 -99 384 -1 476 3 710 30 287 33
683 119 932 203 l117 39 115 -346 c64 -191 116 -353 116 -361 0 -10 -8 -12
-29 -8 -20 4 -76 -9 -173 -39 -78 -25 -159 -50 -178 -56 -37 -10 -1226 -376
-1248 -383 -10 -4 -10 0 -1 17 20 38 15 118 -10 171 -44 92 -174 167 -288 167
-80 0 -131 -19 -177 -65 l-41 -40 -50 70 c-234 326 -708 380 -999 114 -93 -85
-133 -154 -150 -260 l-6 -37 -62 65 c-265 275 -690 292 -944 38 -117 -117
-177 -258 -177 -416 0 -86 26 -195 59 -246 8 -12 14 -24 14 -26 0 -2 -25 -9
-55 -16 -145 -33 -223 -175 -164 -298 24 -50 81 -102 130 -119 l34 -11 -40
-12 c-22 -6 -263 -80 -535 -164 l-494 -153 -87 215 c-313 778 -760 1595 -1098
2008 -299 366 -624 579 -1047 688 -270 70 -560 97 -1159 110 -426 9 -657 29
-870 76 -95 21 -285 77 -285 84 0 2 16 32 37 66 49 84 133 267 166 359 120
341 115 680 -13 946 -76 158 -213 312 -341 386 -32 18 -59 35 -59 38 0 8 160
109 305 192 305 176 539 286 1210 566 770 322 1024 447 1378 680 628 411 988
956 1078 1632 18 134 15 411 -5 545 -32 205 -104 452 -173 588 -18 37 -21 49
-10 53 21 8 1511 472 1520 473 4 1 7 -1 7 -4z m2383 -48 c22 -69 21 -78 -4
-47 -47 59 -52 69 -39 85 20 24 25 19 43 -38z m1697 -287 c0 -5 -5 -10 -11
-10 -5 0 -7 5 -4 10 3 6 8 10 11 10 2 0 4 -4 4 -10z m-120 -20 c0 -5 -7 -10
-15 -10 -8 0 -15 5 -15 10 0 6 7 10 15 10 8 0 15 -4 15 -10z m255 -30 c-3 -5
-13 -10 -21 -10 -8 0 -14 5 -14 10 0 6 9 10 21 10 11 0 17 -4 14 -10z m-5746
-345 c148 -419 153 -854 13 -1273 -172 -513 -560 -971 -1094 -1293 -249 -150
-626 -332 -1266 -610 -722 -315 -1042 -474 -1388 -690 l-142 -88 -73 15 c-146
31 -332 3 -482 -73 -243 -123 -424 -329 -514 -588 -34 -96 -43 -276 -19 -394
9 -45 14 -87 10 -93 -4 -6 -3 -9 2 -6 5 3 27 -41 50 -98 22 -57 39 -104 38
-104 -2 0 -17 21 -35 48 -139 206 -286 245 -466 121 -32 -23 -78 -60 -102 -82
-55 -53 -186 -213 -281 -342 -130 -177 -334 -397 -525 -566 -127 -112 -451
-343 -467 -333 -4 3 -8 1 -8 -5 0 -19 -335 -199 -515 -276 -49 -22 -99 -45
-110 -52 -11 -7 -27 -13 -36 -13 -9 0 -41 -11 -70 -24 -56 -24 -361 -126 -509
-170 -167 -49 -643 -162 -716 -170 -13 -2 -27 -6 -31 -9 -4 -4 -22 -4 -41 -1
-27 5 -33 4 -27 -6 5 -8 4 -11 -3 -6 -6 4 -9 13 -5 21 3 9 0 21 -5 28 -9 10
-6 13 11 14 66 1 69 3 64 23 -4 16 0 20 19 20 21 0 24 4 24 41 0 32 3 39 13
31 14 -12 32 4 32 28 0 8 8 14 18 14 12 -1 17 5 17 22 0 17 6 24 20 24 13 0
20 7 20 20 0 13 7 20 20 20 17 0 20 7 20 40 0 34 3 40 21 40 16 0 20 5 16 20
-4 16 0 20 19 20 22 0 24 4 24 43 0 23 5 49 11 57 9 12 10 11 6 -7 -3 -13 -1
-26 4 -29 5 -3 12 8 15 24 3 17 16 35 28 41 20 10 20 11 -4 5 -18 -5 -22 -3
-14 5 13 14 123 33 137 24 6 -4 7 -1 2 7 -6 10 -4 12 8 7 10 -3 17 -3 17 1 0
4 26 13 58 20 86 20 343 100 457 142 281 104 528 228 742 370 185 123 300 214
428 340 201 198 280 291 604 720 416 551 667 812 1088 1132 155 117 526 361
551 361 6 0 12 4 12 7 0 4 55 39 123 77 67 38 140 79 162 92 145 82 722 356
1180 559 297 132 568 254 601 271 34 17 64 31 68 31 3 0 97 45 207 100 111 55
206 97 212 93 5 -3 7 -2 4 3 -3 5 25 25 61 44 614 316 978 639 1171 1040 144
299 155 542 49 1062 -23 114 -40 209 -38 211 3 3 97 33 210 68 l205 64 32 -71
c17 -39 45 -111 62 -159z m4580 -23 c1 -7 -10 -28 -24 -46 l-25 -33 -178 93
c-97 51 -176 96 -175 99 1 3 18 28 37 55 l35 49 165 -102 c91 -56 165 -108
165 -115z m321 194 c0 -3 -4 -8 -10 -11 -5 -3 -10 -1 -10 4 0 6 5 11 10 11 6
0 10 -2 10 -4z m-300 -96 c0 -5 -5 -10 -11 -10 -5 0 -7 5 -4 10 3 6 8 10 11
10 2 0 4 -4 4 -10z m-5173 -111 c41 -181 72 -334 83 -410 14 -98 14 -289 0
-369 -71 -409 -362 -793 -826 -1093 -250 -161 -613 -342 -1412 -701 -163 -74
-362 -164 -442 -201 -80 -37 -172 -80 -206 -95 -590 -272 -1143 -589 -1534
-880 -431 -321 -686 -585 -1125 -1165 -248 -328 -360 -461 -519 -621 -415
-413 -890 -668 -1659 -889 -180 -52 -734 -195 -755 -195 -14 0 -35 67 -26 82
4 7 53 74 109 148 214 285 385 531 579 835 70 110 161 250 201 310 87 131 110
176 119 231 10 55 -8 95 -72 165 -37 40 -48 58 -38 62 8 3 26 31 41 61 22 45
26 66 23 101 -3 25 -4 45 -1 45 2 0 31 -9 64 -20 174 -59 395 -72 542 -32 238
65 428 245 492 466 37 128 15 308 -51 408 -13 21 -24 40 -24 43 0 3 19 5 43 5
63 0 168 25 231 55 76 36 146 102 187 177 32 58 34 69 34 153 0 81 -3 95 -29
143 -17 29 -44 65 -60 80 l-31 27 145 1 c149 1 217 10 330 45 207 65 375 220
442 409 31 88 33 265 3 355 -32 99 -108 201 -197 264 l-77 55 48 28 c133 75
189 246 123 375 l-21 40 407 126 c224 69 587 181 807 250 220 68 401 123 403
122 2 -2 -2 -13 -8 -25 -7 -13 -12 -48 -13 -80 -1 -127 104 -219 239 -208 l42
3 -5 -50 c-18 -177 113 -394 274 -455 73 -28 171 -36 246 -20 127 26 270 127
312 220 l18 39 53 -49 c80 -72 140 -92 299 -98 237 -8 384 47 535 198 159 159
205 322 135 478 l-24 52 42 0 c56 0 145 24 205 54 76 39 128 91 164 163 42 85
46 186 11 245 l-22 37 42 12 c88 23 138 61 171 127 27 53 22 136 -10 172 -12
14 38 32 444 157 251 77 461 140 466 139 5 -1 20 -49 33 -107z m4819 32 c52
-32 128 -76 169 -98 41 -21 75 -42 75 -47 0 -5 -11 -24 -25 -42 -24 -32 -26
-32 -53 -19 -15 8 -70 35 -122 60 -52 24 -121 59 -152 77 l-57 33 32 47 c18
26 34 48 35 48 2 0 46 -27 98 -59z m453 -195 c28 -76 49 -141 47 -144 -3 -2
-57 17 -120 43 l-114 48 66 98 c36 54 67 97 68 96 1 -1 25 -65 53 -141z m-399
-8 c58 -28 107 -52 109 -54 3 -3 -40 -62 -70 -97 -9 -12 -349 175 -349 191 0
4 16 28 35 54 l34 47 68 -45 c37 -25 115 -68 173 -96z m-235 -52 c38 -26 109
-67 157 -92 95 -49 94 -47 50 -103 l-20 -24 -107 63 c-59 34 -137 76 -174 92
-36 17 -68 32 -70 33 -2 2 11 24 29 49 37 51 28 52 135 -18z m-945 -110 c91
-30 185 -60 209 -66 l45 -12 -132 -48 c-155 -56 -357 -156 -480 -236 -414
-269 -696 -664 -796 -1114 -84 -383 -49 -738 104 -1029 99 -188 215 -320 567
-649 231 -216 359 -409 420 -637 24 -90 27 -118 27 -270 0 -168 -1 -173 -54
-425 l-54 -255 -1 -185 c0 -162 3 -195 23 -270 49 -183 168 -378 314 -517 264
-249 603 -383 1108 -437 575 -62 1166 -40 1836 69 39 7 40 6 51 -29 11 -36 11
-36 -25 -45 -357 -94 -695 -158 -1062 -203 -165 -20 -232 -22 -625 -23 -295 0
-478 4 -555 13 -711 79 -1146 300 -1315 666 -65 140 -80 224 -80 451 1 242 15
333 115 730 92 364 103 426 103 575 0 284 -97 438 -417 665 -326 231 -533 437
-721 720 -91 137 -153 261 -196 390 -32 95 -33 107 -33 250 0 142 2 155 32
245 38 113 70 168 219 365 169 223 206 301 293 620 86 315 157 459 300 609 86
90 164 149 273 204 l76 39 133 -53 c73 -30 207 -78 298 -108z m-4705 106 c25
-34 24 -95 -2 -130 -32 -43 -64 -61 -138 -77 -117 -27 -120 -28 -117 -55 1
-14 18 -41 38 -61 65 -67 66 -141 1 -235 -68 -98 -174 -147 -325 -149 -119 -1
-126 -10 -78 -89 91 -152 68 -303 -68 -441 -173 -175 -472 -250 -663 -165 -67
29 -110 68 -150 131 -40 65 -58 73 -68 30 -9 -44 -101 -176 -148 -214 -84 -69
-121 -82 -232 -82 -117 0 -155 15 -240 96 -61 58 -101 135 -122 234 -17 83 -6
147 27 168 24 14 27 62 5 71 -9 3 -34 -6 -56 -21 -83 -55 -195 -40 -239 32
-34 55 -17 162 32 203 16 12 178 64 778 247 228 69 426 130 440 135 14 5 151
47 305 94 154 47 440 135 635 195 195 61 357 110 360 110 3 0 14 -12 25 -27z
m5531 -97 c38 -25 115 -69 171 -98 57 -29 103 -55 103 -59 0 -16 -56 -87 -66
-84 -5 2 -83 50 -172 106 l-161 103 27 38 c15 21 27 39 28 39 1 0 32 -20 70
-45z m34 -189 c52 -36 107 -70 123 -77 31 -14 32 -17 12 -43 -15 -19 -17 -19
-92 14 -43 18 -126 58 -185 88 l-107 54 37 49 36 48 40 -34 c23 -19 84 -64
136 -99z m-369 43 l57 -12 -24 -35 c-31 -45 -32 -95 -1 -115 12 -8 47 -35 77
-61 131 -112 227 -156 301 -136 27 7 54 28 91 69 l52 59 161 -153 160 -154 36
-108 c20 -59 129 -373 242 -698 112 -324 281 -822 375 -1105 l171 -515 4 -125
c8 -197 63 -354 181 -517 51 -72 57 -87 300 -820 136 -412 301 -908 365 -1103
102 -305 116 -356 102 -362 -17 -8 -484 -60 -691 -78 -69 -6 -145 -13 -170
-15 -25 -2 -146 -7 -270 -10 -254 -8 -510 5 -725 36 -713 102 -1184 423 -1332
906 -24 80 -27 103 -27 253 0 155 3 178 41 365 57 277 65 338 66 510 1 219
-33 370 -124 551 -79 156 -188 279 -459 516 -252 219 -355 340 -438 511 -106
220 -152 472 -132 736 58 761 568 1336 1413 1596 62 18 119 32 127 30 8 -2 40
-9 71 -16z m155 -71 c58 -37 264 -138 282 -138 23 0 12 -19 -25 -45 -46 -31
-90 -32 -145 -4 -49 25 -218 139 -218 147 0 9 44 72 51 72 3 0 27 -14 55 -32z
m904 -103 c0 -8 -7 -15 -15 -15 -8 0 -15 7 -15 15 0 8 7 15 15 15 8 0 15 -7
15 -15z m-150 -115 c0 -5 -5 -10 -11 -10 -5 0 -7 5 -4 10 3 6 8 10 11 10 2 0
4 -4 4 -10z m513 -340 c149 -442 244 -754 348 -1138 l38 -144 -33 -31 c-77
-75 -116 -188 -95 -285 21 -101 112 -182 205 -182 45 0 46 0 59 -68 6 -30 2
-38 -58 -101 -41 -44 -79 -98 -105 -149 -22 -45 -42 -75 -45 -69 -26 69 -330
999 -451 1382 -222 703 -237 754 -230 779 3 14 36 58 72 98 37 41 94 104 126
141 33 37 62 64 67 60 4 -4 50 -136 102 -293z m-9850 150 c34 -38 34 -64 1
-97 -19 -19 -31 -24 -52 -19 -15 4 -43 10 -62 14 -23 5 -40 16 -50 35 -13 24
-13 30 0 54 34 61 114 67 163 13z m-498 -30 c50 -21 83 -57 100 -106 11 -32
10 -42 -4 -70 -13 -27 -26 -35 -79 -49 -69 -19 -54 -21 -204 22 -34 10 -18
-17 23 -37 23 -12 39 -23 37 -25 -2 -2 -240 -74 -528 -160 -864 -257 -1388
-414 -1505 -450 -60 -19 -283 -86 -495 -150 -1075 -324 -2241 -695 -2250 -716
-4 -7 -12 -24 -18 -36 -7 -13 -12 -32 -12 -43 0 -21 133 -469 385 -1296 l138
-451 -118 -154 c-64 -85 -120 -155 -123 -157 -5 -1 -644 2143 -678 2274 -5 18
4 23 88 48 449 134 1786 543 2403 736 549 171 1223 383 1577 495 l307 97 123
-40 c160 -52 226 -65 323 -64 179 1 299 90 384 285 37 86 38 86 126 47z m-595
-599 c48 -96 31 -192 -47 -261 -25 -22 -64 -45 -87 -52 -55 -15 -58 -20 -51
-62 6 -31 18 -44 84 -89 259 -178 296 -508 82 -739 -71 -78 -152 -130 -249
-162 -122 -40 -184 -48 -405 -53 -187 -5 -209 -7 -217 -24 -7 -12 -6 -22 3
-31 6 -7 13 -20 15 -28 2 -8 10 -19 18 -25 9 -5 37 -24 62 -40 98 -63 129
-186 76 -293 -30 -60 -104 -130 -170 -162 -64 -29 -185 -52 -264 -48 -81 4
-86 -8 -36 -89 61 -99 79 -164 79 -283 1 -90 -3 -115 -26 -173 -64 -165 -198
-284 -392 -349 -62 -20 -88 -23 -230 -23 -166 1 -222 10 -390 67 -56 19 -60
19 -72 2 -17 -23 -17 -69 1 -83 34 -28 24 -116 -18 -150 -14 -12 -20 -11 -41
9 -13 13 -22 26 -20 31 3 4 -3 5 -14 2 -20 -5 -36 21 -25 40 5 8 3 8 -6 0 -10
-10 -19 -8 -42 8 -15 11 -25 25 -22 31 4 6 2 8 -4 4 -6 -3 -15 2 -21 11 -6 10
-11 15 -11 10 0 -4 -39 22 -87 59 -49 36 -87 70 -85 76 1 5 -2 7 -6 4 -11 -6
-125 88 -252 208 -238 223 -393 286 -528 211 -73 -39 -164 -139 -261 -284 -45
-68 -83 -116 -86 -109 -8 20 -290 945 -416 1363 -38 127 -73 241 -78 255 l-8
26 251 68 c335 91 1157 326 1536 438 168 49 366 108 440 130 235 69 1008 303
1495 452 259 80 478 145 487 145 11 1 25 -14 38 -38z m11743 -775 c116 -42
193 -159 168 -253 -12 -41 -55 -102 -66 -91 -3 3 -10 53 -14 110 -4 56 -13
113 -20 125 -23 44 -65 56 -189 54 -169 -2 -235 -21 -286 -81 -86 -103 -33
-260 94 -277 32 -5 43 -12 55 -36 8 -17 12 -33 9 -36 -3 -3 -30 -6 -59 -5 -71
0 -139 41 -173 104 -20 38 -23 55 -19 110 2 38 13 82 25 105 39 77 141 152
237 176 51 12 198 9 238 -5z m-31 -108 c42 -12 78 -49 78 -79 0 -15 -8 -19
-35 -19 -19 0 -58 -10 -87 -21 -85 -34 -172 -59 -179 -51 -13 15 -41 154 -33
162 22 21 196 26 256 8z m-323 -154 c12 -53 20 -99 17 -102 -3 -2 -21 11 -41
31 -28 28 -35 42 -35 76 0 40 17 91 30 91 4 0 17 -43 29 -96z m397 -30 c13
-20 48 -164 41 -170 -1 -1 -12 -5 -24 -8 -19 -6 -25 0 -42 40 -12 26 -37 69
-57 97 -40 56 -36 67 28 67 29 0 41 -6 54 -26z m-118 -46 c33 -48 56 -92 66
-126 6 -17 3 -24 -15 -31 -21 -7 -28 0 -81 86 -32 52 -58 96 -58 98 0 4 27 12
47 14 7 0 25 -18 41 -41z m-67 -84 c27 -48 49 -90 49 -94 0 -3 -14 -13 -32
-22 l-32 -15 -38 81 c-21 45 -38 89 -38 98 0 18 29 52 37 44 3 -3 27 -44 54
-92z m534 -89 c251 -66 444 -215 544 -420 102 -209 101 -446 -4 -654 -95 -190
-283 -341 -480 -387 -108 -25 -287 -15 -383 20 -245 91 -435 307 -502 570 -25
97 -27 280 -5 374 14 61 57 158 90 205 34 49 124 132 187 174 77 50 129 74
248 115 74 25 95 28 165 24 44 -3 107 -12 140 -21z m-418 -1468 c39 -20 102
-44 140 -53 37 -9 70 -18 71 -20 5 -4 35 -86 148 -404 175 -491 466 -1424 688
-2205 102 -361 186 -665 186 -677 0 -4 -6 -8 -12 -8 -34 0 -3517 -1004 -4598
-1325 -80 -24 -253 -75 -385 -114 -338 -99 -969 -286 -1522 -450 -260 -78
-479 -141 -487 -141 -8 0 -28 16 -43 35 -15 19 -35 35 -43 35 -8 0 -53 -32
-100 -71 -47 -39 -94 -77 -105 -85 -20 -13 -498 -156 -1825 -548 -1234 -364
-1396 -412 -1955 -580 -1589 -477 -3534 -1102 -3573 -1147 -28 -32 -46 -23
-63 34 -9 28 -35 102 -57 164 l-41 111 157 119 c86 65 161 120 165 122 5 2 21
-12 37 -30 26 -31 30 -33 50 -21 16 10 25 10 35 2 16 -13 30 -9 510 126 1030
291 1970 580 3810 1169 2026 649 2012 645 3387 1070 507 158 1015 315 1128
350 113 35 300 93 415 128 116 36 458 142 760 236 879 272 2309 713 3104 958
517 159 746 233 775 253 22 15 51 31 64 34 16 5 22 15 22 35 0 15 -178 565
-396 1222 -217 657 -435 1316 -485 1464 -49 149 -89 274 -89 278 0 5 12 0 28
-11 15 -11 59 -36 99 -55z m-9819 8 c149 -35 260 -120 301 -230 31 -81 26
-187 -12 -260 -27 -54 -100 -129 -158 -163 -97 -58 -245 -65 -374 -18 -225 82
-328 275 -239 448 24 46 109 132 165 169 101 64 201 81 317 54z m-5186 -173
c69 -56 247 -190 394 -298 450 -330 465 -342 447 -362 -8 -9 -43 -65 -77 -123
-114 -193 -219 -343 -525 -754 -219 -294 -409 -569 -476 -689 l-36 -65 -127
106 c-313 260 -627 475 -904 618 -32 17 -58 33 -58 38 0 4 146 190 325 412
440 547 685 882 845 1153 24 41 48 71 55 68 6 -2 68 -49 137 -104z m4423 -212
c3 -5 -3 -10 -14 -10 -11 0 -23 5 -26 10 -3 6 3 10 14 10 11 0 23 -4 26 -10z
m-319 -501 c95 -45 204 -167 364 -405 119 -176 150 -215 274 -340 78 -77 193
-198 256 -268 63 -71 123 -134 132 -140 27 -20 77 -7 100 25 20 26 23 27 48
14 54 -28 261 -94 372 -119 201 -45 383 -67 703 -86 189 -10 279 -16 435 -25
640 -39 1069 -175 1446 -458 514 -386 875 -1000 1148 -1952 30 -104 51 -193
48 -197 -8 -7 -85 -32 -338 -108 -88 -27 -167 -52 -176 -55 -15 -6 -15 -3 -3
32 8 21 14 47 15 58 1 101 -108 214 -209 215 l-33 0 7 45 c7 53 -9 144 -37
198 -27 54 -94 118 -152 145 -28 14 -78 26 -117 29 -38 3 -69 6 -69 7 0 1 7
19 15 41 20 58 19 162 -5 236 -72 233 -309 352 -585 294 -38 -8 -70 -15 -70
-15 0 0 2 21 4 47 11 148 -83 322 -226 416 -84 54 -133 74 -222 88 -119 18
-248 -19 -340 -98 l-39 -33 -64 30 c-217 102 -487 22 -620 -184 -91 -141 -110
-337 -49 -510 l18 -52 -29 4 c-79 12 -190 -59 -221 -140 -43 -112 -11 -260 77
-365 l26 -31 -48 -7 c-148 -21 -286 -151 -328 -309 -64 -240 112 -547 375
-652 l41 -16 -25 -32 c-73 -96 -70 -212 9 -290 l24 -25 -31 -10 c-27 -9 -513
-155 -747 -226 l-75 -22 -13 31 c-23 54 -70 226 -97 356 -64 310 -137 465
-301 639 -226 241 -566 396 -855 390 -104 -2 -165 -12 -364 -59 -179 -43 -362
-52 -449 -21 -112 39 -221 147 -325 321 -162 273 -177 295 -271 391 -146 149
-315 249 -507 299 -390 102 -801 -17 -1079 -314 -84 -89 -96 -106 -84 -126 6
-10 29 6 94 68 181 170 402 282 640 323 97 16 332 6 421 -19 168 -46 299 -120
424 -238 104 -98 161 -176 261 -359 45 -82 102 -179 125 -215 61 -92 151 -174
232 -213 65 -30 74 -32 183 -31 105 0 126 4 235 38 190 61 262 76 390 82 392
20 778 -182 997 -520 88 -137 131 -261 203 -595 15 -69 37 -153 50 -188 l22
-63 -112 -35 c-62 -19 -118 -35 -124 -35 -5 0 -15 19 -21 43 -100 387 -226
634 -429 838 -145 145 -281 228 -446 271 -71 18 -123 21 -480 28 -369 7 -406
9 -479 29 -197 55 -297 132 -567 441 -196 225 -287 302 -441 375 -139 66 -209
79 -428 79 -183 1 -201 -1 -294 -27 -124 -34 -247 -94 -348 -169 l-78 -58 -11
27 c-6 16 -21 64 -34 108 -12 44 -86 280 -163 525 -219 694 -262 833 -257 840
3 4 33 10 67 14 35 4 146 20 248 37 872 143 1581 430 2125 863 188 150 518
501 640 682 67 100 189 246 259 311 133 125 228 147 362 82z m1974 -759 c-13
-8 -12 -10 3 -10 9 0 17 4 17 10 0 5 7 7 16 3 13 -5 13 -7 2 -14 -7 -5 -8 -9
-2 -9 5 0 15 5 21 11 7 7 46 7 129 0 65 -6 301 -15 524 -21 462 -11 658 -23
850 -50 603 -87 1092 -416 1534 -1030 33 -45 59 -88 59 -95 0 -8 3 -12 7 -10
6 4 77 -101 125 -185 5 -10 33 -58 62 -107 99 -169 267 -502 363 -718 12 -27
33 -72 45 -100 57 -123 275 -638 275 -649 0 -9 -590 -198 -598 -191 -1 1 -16
54 -33 116 -177 662 -408 1190 -681 1557 -40 53 -78 103 -85 110 -7 8 -11 18
-7 23 3 5 2 8 -3 7 -4 -1 -35 26 -68 62 -178 192 -381 356 -565 457 -67 37
-198 103 -205 103 -3 1 -26 10 -52 21 -76 34 -270 98 -373 124 -301 75 -536
103 -1070 125 -280 12 -480 28 -496 41 -6 5 -14 6 -17 2 -4 -3 -7 -2 -7 3 0 6
6 16 13 23 6 7 8 12 2 11 -5 -2 -23 -2 -38 -1 -23 1 -26 3 -15 15 9 10 15 11
20 2 5 -7 8 -6 8 4 0 13 1 13 10 0 6 -10 10 -11 10 -2 0 6 9 12 20 12 17 0 20
7 20 40 0 33 3 40 20 40 14 0 20 7 20 24 0 17 5 23 18 22 16 -1 18 4 21 52 1
15 7 22 21 22 25 0 27 34 3 50 -16 10 -16 11 -1 6 12 -3 15 -1 11 10 -4 10 2
14 21 14 27 0 34 18 15 37 -9 9 -6 11 12 7 17 -4 20 -3 10 4 -15 11 -7 32 12
32 7 0 6 -4 -3 -10z m-220 -40 c0 -5 -4 -10 -10 -10 -5 0 -10 5 -10 10 0 6 5
10 10 10 6 0 10 -4 10 -10z m100 -19 c0 -12 -20 -25 -27 -18 -7 7 6 27 18 27
5 0 9 -4 9 -9z m-280 -171 c0 -5 -4 -10 -10 -10 -5 0 -10 5 -10 10 0 6 5 10
10 10 6 0 10 -4 10 -10z m-315 -50 c3 -5 1 -10 -4 -10 -6 0 -11 5 -11 10 0 6
2 10 4 10 3 0 8 -4 11 -10z m478 -126 c-5 -13 -7 -13 -14 -2 -7 10 -9 11 -9 0
0 -7 -5 -10 -11 -6 -8 4 -7 9 2 15 22 14 39 10 32 -7z m-5108 -234 c3 -6 -1
-7 -9 -4 -18 7 -21 14 -7 14 6 0 13 -4 16 -10z m-596 -82 c26 -88 591 -1879
827 -2618 47 -146 109 -348 139 -450 83 -282 163 -565 161 -567 -1 -1 -36 21
-77 50 -97 67 -102 70 -244 143 l-120 61 -182 549 c-258 780 -459 1420 -689
2198 l-103 349 132 163 c72 90 134 164 138 164 3 0 11 -19 18 -42z m13052
-527 c86 -27 202 -103 262 -172 27 -30 69 -88 95 -129 25 -41 51 -78 57 -82
16 -11 50 17 51 43 1 36 29 84 61 105 47 31 145 26 218 -11 73 -37 125 -100
125 -152 0 -35 -33 -103 -51 -103 -5 0 -9 -8 -9 -18 0 -15 -64 -37 -367 -130
-203 -62 -371 -113 -374 -112 -4 0 -9 17 -13 38 -14 87 -107 164 -201 164 -59
0 -129 -35 -159 -78 l-23 -34 -33 35 c-54 55 -121 80 -220 80 -72 -1 -94 -5
-145 -28 -72 -33 -136 -94 -161 -151 -10 -22 -18 -42 -19 -43 -1 -1 -23 9 -50
22 -26 14 -64 25 -84 25 -46 0 -115 -34 -137 -68 -26 -39 -23 -111 5 -150 27
-39 87 -60 120 -42 30 15 22 32 -19 43 -73 19 -84 99 -18 133 42 22 86 11 136
-32 50 -42 87 -44 87 -4 1 39 35 101 86 152 77 77 197 99 293 53 22 -11 68
-46 103 -78 35 -33 67 -57 70 -53 4 4 19 30 33 59 70 145 224 126 268 -33 l9
-36 -296 -91 c-163 -50 -568 -175 -901 -278 -333 -103 -624 -193 -647 -200
-24 -7 -43 -9 -43 -4 0 5 -21 19 -47 30 -85 36 -123 87 -123 163 0 85 69 136
184 136 36 0 68 4 71 10 3 5 -10 56 -30 114 -80 233 -47 427 97 582 140 149
379 203 585 131 123 -42 225 -122 361 -281 30 -36 34 -37 55 -23 19 13 23 25
27 108 4 76 10 105 33 151 54 110 210 217 367 253 87 20 225 13 311 -14z
m-5840 -383 c105 -48 182 -139 215 -253 13 -47 16 -84 11 -177 -5 -109 -4
-119 14 -129 22 -11 59 4 59 25 0 7 22 18 53 24 188 42 339 14 447 -84 53 -48
76 -88 96 -163 19 -76 8 -159 -31 -234 -14 -27 -25 -58 -25 -68 0 -25 38 -40
65 -26 11 6 51 11 90 11 115 1 210 -58 253 -157 17 -41 15 -144 -5 -200 -21
-58 -11 -83 33 -80 75 7 85 5 107 -14 12 -11 39 -26 60 -33 60 -19 71 -62 40
-149 -16 -46 -17 -47 -87 -68 -39 -12 -107 -32 -151 -46 -320 -99 -1515 -461
-2299 -696 -93 -28 -177 -51 -187 -51 -9 0 -31 17 -48 37 -36 43 -49 109 -31
152 16 39 67 87 113 106 30 12 38 20 35 38 -2 17 -11 23 -43 27 -56 8 -158 58
-234 115 -68 52 -139 139 -171 211 -83 190 -24 410 134 492 42 22 66 27 138
28 48 1 92 5 98 9 15 9 12 55 -5 61 -22 9 -84 99 -118 172 -67 144 -21 286 99
300 37 4 56 0 90 -19 l44 -24 20 21 21 20 -25 50 c-60 120 -79 317 -43 436 54
178 212 298 393 298 114 0 178 -25 319 -125 10 -6 20 -3 34 9 27 24 26 35 -3
67 l-25 27 52 27 c91 50 153 65 252 62 71 -2 102 -8 146 -29z m-5553 -924
c195 -40 342 -116 481 -248 34 -34 126 -139 203 -234 248 -305 369 -390 608
-423 68 -10 246 -6 303 7 12 3 108 8 212 11 157 5 205 3 275 -11 189 -39 334
-119 480 -265 183 -184 312 -424 426 -794 14 -48 25 -89 23 -90 -2 -2 -132
-43 -289 -91 -582 -181 -931 -293 -1535 -493 -842 -279 -1096 -369 -1116 -393
-17 -19 -17 -19 -23 3 -4 16 0 26 16 37 179 123 291 316 314 541 l6 66 -136
72 c-227 118 -604 356 -646 406 -6 8 -76 233 -155 502 -79 268 -191 638 -249
821 -58 183 -106 337 -106 342 0 14 104 82 195 127 93 46 213 88 311 107 98
20 307 20 402 0z m7492 -1500 c118 -152 455 -488 619 -618 377 -298 800 -519
1215 -635 60 -17 111 -33 113 -35 2 -2 -1 -15 -7 -30 -5 -15 -10 -42 -10 -61
0 -19 -5 -37 -11 -40 -11 -8 -106 27 -156 57 -23 13 -33 28 -35 49 -3 29 -10
33 -118 78 -374 155 -706 355 -1063 640 -251 200 -557 481 -557 511 0 33 -21
33 -52 1 -44 -45 -83 -50 -180 -26 -21 6 -28 4 -28 -7 0 -8 -18 -32 -41 -53
-146 -142 -311 -377 -399 -572 l-32 -72 22 -31 c12 -17 27 -50 32 -72 8 -38 6
-46 -24 -90 -18 -26 -35 -48 -38 -48 -3 0 -41 29 -85 65 -44 35 -83 65 -87 65
-19 0 -1 32 99 174 204 289 452 616 626 825 l70 84 21 -25 c12 -14 59 -74 106
-134z m88 -268 c98 -111 259 -261 404 -375 l97 -76 -34 -8 c-32 -8 -39 -5
-137 74 -188 153 -368 339 -456 472 -21 32 -23 40 -11 48 10 6 19 2 32 -14 10
-12 58 -66 105 -121z m-245 102 c9 0 17 -1 17 -4 0 -16 -283 -443 -413 -623
l-90 -123 -12 36 c-7 20 -20 47 -28 60 -15 23 -14 28 44 121 119 194 257 385
354 493 44 49 50 52 79 46 17 -4 39 -7 49 -6z m102 -70 c53 -92 165 -210 345
-366 153 -132 393 -322 448 -355 17 -10 32 -23 32 -28 0 -19 -30 -20 -57 -1
-15 10 -87 58 -158 105 -137 91 -308 223 -438 340 l-78 70 -38 -12 c-56 -16
-102 -14 -139 9 -18 11 -37 20 -42 20 -14 0 -270 -393 -270 -415 0 -3 -15 -28
-33 -57 -18 -29 -45 -74 -60 -99 l-27 -47 30 -38 c17 -20 33 -48 36 -61 8 -30
-10 -73 -31 -73 -35 0 -6 -31 133 -141 197 -156 351 -269 540 -395 86 -58 158
-110 160 -115 2 -5 -13 -40 -34 -77 l-37 -69 -171 122 c-94 68 -217 158 -273
202 -122 95 -385 324 -465 406 -52 52 -58 63 -58 100 0 78 52 165 212 355 66
77 304 426 414 604 16 27 31 48 34 48 3 0 14 -15 25 -32z m-7835 -253 c0 -8
-4 -15 -9 -15 -13 0 -22 16 -14 24 11 11 23 6 23 -9z m7837 -55 c17 0 44 5 58
10 25 10 34 4 134 -92 59 -57 151 -134 204 -173 52 -38 96 -73 96 -76 1 -3
-22 -9 -49 -12 -76 -9 -181 -69 -244 -139 -148 -163 -187 -403 -96 -582 17
-33 29 -60 28 -62 -2 -1 -130 88 -286 199 -265 188 -281 201 -266 218 38 42
26 127 -24 172 -20 19 -20 20 76 166 126 190 170 261 216 343 l37 67 42 -19
c23 -11 56 -20 74 -20z m-8767 20 c0 -5 -6 -10 -14 -10 -8 0 -18 5 -21 10 -3
6 3 10 14 10 12 0 21 -4 21 -10z m261 -119 c30 -24 19 -36 -32 -35 -47 2 -53
6 -44 33 8 27 45 28 76 2z m1047 -99 c6 -18 -15 -14 -22 4 -4 10 -1 14 6 12 6
-2 14 -10 16 -16z m8268 -95 c60 -40 155 -99 212 -132 92 -54 102 -62 102 -88
0 -19 -4 -27 -12 -24 -107 42 -156 65 -168 78 -8 9 -80 63 -160 119 -80 57
-149 107 -154 111 -6 5 7 9 30 9 33 0 59 -13 150 -73z m-9056 -8 c0 -5 -7 -9
-15 -9 -9 0 -12 6 -9 15 6 15 24 11 24 -6z m8938 -153 c56 -33 102 -60 102
-61 0 -1 -23 -42 -52 -91 -28 -49 -120 -225 -205 -392 l-155 -302 -56 41
c-197 140 -259 412 -149 653 28 60 104 144 155 170 55 28 135 46 197 43 52 -3
73 -11 163 -61z m370 -136 c108 -45 240 -98 292 -120 388 -160 567 -231 640
-255 154 -50 212 -90 244 -167 21 -49 21 -163 0 -242 -24 -94 -45 -140 -206
-461 -42 -82 -116 -234 -166 -336 -61 -125 -101 -195 -121 -212 -68 -57 -204
-57 -369 -1 -83 29 -306 136 -334 162 -10 8 -18 12 -18 9 0 -3 -35 12 -77 33
-43 21 -148 64 -233 95 -366 135 -484 224 -465 351 15 103 58 195 216 459 46
78 154 281 239 452 85 172 156 312 158 312 2 1 92 -35 200 -79z m558 -130
c113 -44 132 -55 121 -66 -5 -5 -529 200 -573 225 -8 4 -9 14 -3 28 8 22 12
21 177 -61 93 -45 218 -102 278 -126z m-9926 -440 c0 -6 -9 -10 -20 -10 -13 0
-20 7 -20 20 0 18 3 19 20 10 11 -6 20 -15 20 -20z m-1422 -14 c63 -32 90
-122 57 -186 -36 -70 -157 -99 -210 -50 -15 14 -33 37 -41 52 -32 61 -6 167
47 196 29 16 106 9 147 -12z m1865 -131 l17 -36 -40 23 c-36 21 -38 24 -23 36
24 17 27 16 46 -23z m-1134 -134 c17 -11 -13 -73 -122 -246 -89 -142 -87 -141
-125 -121 -30 16 -42 34 -42 65 0 16 152 232 203 289 21 23 61 29 86 13z
m9249 -90 c-15 -37 -94 -190 -99 -190 -15 -2 -30 123 -23 189 l6 69 60 -30
c33 -16 58 -34 56 -38z m-8810 -197 l46 -46 -29 -52 c-15 -28 -61 -102 -101
-163 l-74 -113 -56 25 c-31 14 -58 25 -60 25 -1 0 17 36 41 79 24 43 60 111
79 150 31 61 89 141 103 141 2 0 25 -21 51 -46z m1063 -473 c128 -40 200 -137
200 -268 0 -209 -202 -315 -413 -216 -83 39 -131 82 -162 145 -59 119 -14 256
111 340 36 24 185 23 264 -1z"/>
<path d="M15482 18067 c-62 -63 -72 -77 -51 -77 18 0 149 111 149 126 0 30
-39 11 -98 -49z"/>
<path d="M15566 18031 c-20 -27 -46 -55 -58 -63 -12 -8 -18 -19 -14 -26 10
-16 70 30 108 82 26 36 29 56 8 56 -4 0 -24 -22 -44 -49z"/>
<path d="M4822 17084 c2 -13 37 -32 124 -66 132 -52 164 -60 171 -40 5 14 -27
29 -167 78 -52 18 -103 36 -114 40 -14 5 -17 3 -14 -12z"/>
<path d="M4730 16988 c0 -29 181 -95 274 -100 55 -3 76 17 29 28 -33 8 -260
72 -285 80 -12 4 -18 1 -18 -8z"/>
<path d="M4669 16884 c-21 -11 -38 -45 -92 -191 -153 -410 -216 -637 -217
-777 0 -113 42 -164 195 -231 145 -65 485 -198 775 -305 102 -37 246 -93 320
-125 187 -78 284 -105 383 -105 166 0 242 79 302 313 90 356 110 564 66 679
-34 88 -89 131 -271 212 -239 106 -744 301 -1165 451 -270 96 -266 95 -296 79z
m236 -123 c441 -159 410 -146 408 -178 -1 -15 -21 -66 -44 -113 -79 -159 -240
-286 -407 -321 -120 -24 -372 7 -372 46 0 8 29 110 64 227 35 117 76 259 91
316 16 56 31 102 34 102 4 0 105 -36 226 -79z m690 -258 c105 -41 200 -79 212
-84 l23 -8 -34 -63 c-19 -35 -41 -87 -50 -117 -20 -70 -21 -209 -1 -286 46
-174 185 -323 354 -380 l65 -22 -64 -48 c-90 -66 -182 -118 -292 -165 l-94
-41 -139 59 c-77 32 -236 94 -352 138 -179 66 -212 81 -207 96 3 12 -18 40
-73 95 -43 43 -102 113 -131 156 -49 71 -132 231 -132 255 0 5 44 12 98 15
114 6 201 31 291 84 125 74 236 211 278 345 15 49 21 57 38 51 11 -3 106 -39
210 -80z m404 -163 c218 -90 273 -128 312 -216 42 -95 46 -308 8 -496 -10 -47
-14 -55 -28 -48 -9 4 -47 13 -84 18 -193 29 -363 181 -412 367 -17 68 -19 179
-4 245 11 51 68 180 79 180 4 0 62 -23 129 -50z m-1433 -212 l74 -23 21 -65
c48 -145 124 -266 248 -393 62 -64 64 -67 31 -54 -19 8 -89 34 -155 57 -66 23
-142 53 -168 67 -107 54 -177 150 -177 246 0 60 28 187 42 187 5 0 43 -10 84
-22z m1734 -594 c0 -10 -43 -122 -60 -154 -47 -92 -109 -149 -178 -164 -38 -9
-163 9 -233 33 l-50 17 80 32 c98 40 207 110 286 184 56 52 63 56 107 54 27 0
48 -1 48 -2z"/>
<path d="M3285 17292 c-171 -59 -296 -200 -410 -463 -24 -57 -45 -114 -45
-126 0 -25 3 -26 110 -43 108 -18 377 -87 507 -130 67 -22 133 -40 146 -40 22
0 30 13 76 129 75 191 201 530 201 542 0 15 -196 105 -281 129 -94 26 -233 27
-304 2z m375 -76 c109 -37 140 -60 140 -103 0 -14 -20 -75 -44 -136 -36 -93
-98 -265 -148 -413 l-11 -31 -51 19 c-94 36 -359 109 -505 138 -79 16 -146 32
-149 35 -10 9 115 249 163 313 83 111 185 187 282 212 76 19 209 5 323 -34z"/>
<path d="M1418 15924 c-39 -89 -18 -215 46 -273 21 -19 29 -22 38 -13 10 10 9
17 -2 35 -61 94 -75 171 -45 244 19 45 19 53 -1 53 -8 0 -24 -20 -36 -46z"/>
<path d="M1499 15853 c-4 -39 4 -89 17 -114 20 -39 83 -91 107 -87 29 4 33 26
5 38 -55 23 -98 85 -98 143 0 26 -4 37 -15 37 -8 0 -16 -8 -16 -17z"/>
<path d="M4132 15034 c31 -108 32 -114 20 -166 -19 -78 -19 -93 -2 -93 23 0
50 64 50 120 -1 67 -29 149 -54 153 -14 3 -18 0 -14 -14z"/>
<path d="M4266 14991 c-4 -5 -2 -21 4 -36 15 -38 12 -110 -5 -152 -20 -49 -20
-75 2 -71 44 8 69 159 40 231 -16 36 -30 46 -41 28z"/>
<path d="M6316 14234 c-31 -49 -76 -82 -135 -99 -19 -6 -36 -16 -39 -23 -13
-41 113 -10 174 42 44 37 70 86 60 111 -10 27 -30 16 -60 -31z"/>
<path d="M6293 14081 c-29 -47 -55 -62 -140 -87 -19 -5 -16 -24 5 -26 35 -3
77 4 102 17 70 37 127 145 76 145 -7 0 -27 -22 -43 -49z"/>
<path d="M11785 12373 c-64 -9 -153 -36 -221 -67 -294 -136 -476 -386 -478
-657 l0 -77 -32 24 c-44 34 -134 64 -192 64 -88 0 -151 -26 -213 -89 -89 -89
-123 -218 -85 -324 l14 -37 -37 7 c-59 12 -149 5 -195 -15 -156 -70 -207 -251
-105 -380 29 -37 97 -82 126 -82 12 0 23 -2 23 -4 0 -2 -11 -23 -24 -47 -42
-76 -59 -154 -53 -240 11 -169 112 -296 276 -349 90 -29 219 -25 294 8 l47 21
0 -48 c0 -70 34 -192 77 -274 72 -138 233 -271 388 -320 93 -29 315 -31 415
-3 133 37 275 128 333 214 l15 24 56 -46 c61 -49 158 -86 229 -86 102 0 217
59 277 141 38 53 70 139 70 189 l0 39 56 -34 c101 -61 174 -80 304 -80 112 0
117 1 192 37 124 59 190 138 223 265 24 90 18 165 -19 254 -5 12 4 18 46 27
86 20 155 58 217 119 181 182 165 451 -41 710 -137 173 -389 307 -594 315
l-61 3 18 40 c37 81 15 212 -51 310 -114 167 -333 248 -538 200 -35 -8 -79
-23 -100 -34 l-36 -19 -70 75 c-167 179 -349 254 -551 226z m232 -114 c81 -25
193 -101 283 -191 l72 -72 81 29 c189 67 391 31 512 -90 113 -112 125 -251 32
-361 -46 -55 -40 -60 81 -67 135 -8 216 -28 317 -77 165 -81 308 -221 387
-378 37 -74 42 -92 46 -170 6 -118 -14 -185 -75 -252 -67 -74 -128 -103 -233
-108 -68 -3 -97 0 -147 17 -69 23 -90 20 -99 -16 -8 -32 0 -39 82 -72 66 -26
70 -30 99 -86 58 -116 33 -252 -61 -335 -48 -42 -125 -77 -197 -90 -104 -20
-248 26 -390 123 -73 51 -101 57 -117 28 -8 -16 -5 -26 16 -51 24 -28 26 -37
21 -86 -6 -62 -41 -144 -81 -191 -15 -18 -52 -44 -83 -59 -50 -23 -66 -26
-128 -22 -83 5 -157 40 -206 96 -28 32 -30 39 -24 84 8 53 -4 78 -36 78 -10 0
-24 -9 -31 -20 -7 -11 -18 -20 -24 -20 -25 0 -38 -29 -25 -56 10 -23 8 -32
-13 -69 -58 -99 -185 -181 -327 -211 -96 -21 -248 -14 -340 15 -231 73 -399
310 -404 571 -1 88 -3 95 -22 98 -12 2 -48 -10 -80 -26 -165 -83 -324 -64
-430 51 -75 82 -98 181 -69 297 19 72 47 126 101 190 25 31 33 46 25 54 -6 6
-46 11 -89 11 -64 0 -85 4 -107 21 -49 36 -68 70 -68 122 0 129 121 215 270
192 33 -5 55 -3 76 8 28 13 29 17 21 51 -4 20 -8 70 -8 111 1 58 6 85 24 119
81 155 267 176 399 44 29 -29 61 -53 71 -53 26 0 45 25 34 45 -13 22 4 186 28
273 73 271 317 480 614 525 50 8 156 -4 222 -24z"/>
<path d="M11700 11529 c-135 -23 -220 -101 -220 -201 0 -85 46 -141 128 -154
l42 -7 -35 -47 c-65 -88 -98 -175 -103 -265 -4 -73 -1 -85 25 -135 34 -65 115
-134 175 -151 117 -31 234 33 330 180 26 40 48 69 48 64 0 -21 76 -97 114
-114 121 -55 278 27 318 164 6 23 13 43 14 45 1 2 17 -4 35 -13 44 -23 135
-22 190 2 81 36 148 126 135 179 -9 36 -60 33 -83 -3 -48 -78 -99 -113 -165
-113 -60 1 -109 28 -133 73 -20 37 -42 45 -80 31 -14 -6 -15 -18 -9 -88 6 -72
4 -87 -15 -123 -59 -117 -202 -110 -261 13 -19 39 -22 56 -17 115 4 43 2 71
-5 75 -19 12 -70 -59 -101 -140 -62 -165 -131 -235 -242 -244 -74 -6 -118 17
-156 82 -38 67 -40 153 -5 238 34 83 109 183 153 205 45 22 56 60 23 81 -17
10 -26 10 -51 -4 -48 -24 -133 -30 -162 -11 -53 35 -38 116 30 162 22 14 73
32 114 41 82 17 93 23 87 50 -4 23 -38 26 -118 13z"/>
<path d="M3650 8422 c0 -5 7 -9 15 -9 8 0 12 4 9 9 -3 4 -9 8 -15 8 -5 0 -9
-4 -9 -8z"/>
<path d="M3425 8090 c-3 -5 -1 -10 4 -10 6 0 11 5 11 10 0 6 -2 10 -4 10 -3 0
-8 -4 -11 -10z"/>
<path d="M3261 7934 c0 -11 3 -14 6 -6 3 7 2 16 -1 19 -3 4 -6 -2 -5 -13z"/>
<path d="M9475 14380 c-3 -5 -3 -31 1 -57 5 -43 3 -50 -21 -73 -37 -35 -125
-35 -189 -1 -37 21 -47 23 -60 12 -24 -20 -20 -39 18 -82 66 -78 66 -165 0
-238 -72 -81 -241 -124 -339 -87 -57 22 -88 60 -80 98 6 24 3 29 -21 38 -35
14 -54 6 -54 -20 0 -33 -55 -105 -94 -124 -19 -9 -47 -16 -63 -16 -59 0 -99
84 -53 112 27 17 26 48 0 48 -36 0 -70 -44 -70 -90 0 -84 48 -130 135 -130 53
0 96 19 142 63 l33 31 27 -26 c82 -76 243 -99 375 -53 61 22 126 80 163 146
27 48 30 63 30 139 l0 85 46 1 c59 1 108 29 136 80 27 46 29 84 8 124 -16 30
-57 42 -70 20z"/>
<path d="M3718 12243 c-34 -5 -51 -26 -43 -52 7 -23 14 -25 124 -41 81 -12
122 -35 147 -82 45 -87 -69 -189 -210 -189 -36 0 -83 5 -105 11 -23 6 -46 8
-52 4 -19 -11 -1 -62 40 -117 87 -114 105 -216 55 -315 -62 -125 -228 -188
-351 -133 -81 37 -161 144 -179 239 -4 19 -13 36 -21 39 -20 8 -50 -23 -64
-66 -24 -75 -42 -102 -86 -128 -57 -33 -115 -33 -150 -1 -56 52 -69 127 -33
186 24 40 25 58 3 66 -23 9 -59 -28 -79 -80 -51 -133 57 -283 193 -270 61 5
147 48 176 88 l20 27 36 -52 c47 -67 128 -122 211 -143 165 -42 325 36 402
194 30 62 33 75 33 167 0 90 -3 105 -27 151 l-27 51 63 5 c155 13 259 109 260
240 1 48 -3 61 -30 95 -40 49 -113 89 -190 102 -61 11 -67 11 -116 4z"/>
<path d="M18285 12130 c-7 -11 -1 -14 65 -30 25 -6 62 -23 83 -36 57 -37 91
-19 45 23 -44 39 -177 69 -193 43z"/>
<path d="M18185 12080 c-7 -12 1 -15 80 -31 32 -6 83 -23 112 -37 43 -21 55
-24 65 -13 19 18 -29 56 -94 76 -58 17 -154 20 -163 5z"/>
<path d="M18037 12026 c-3 -7 -23 -17 -44 -20 -68 -13 -180 -75 -238 -133 -92
-92 -154 -250 -155 -391 0 -85 28 -201 72 -292 80 -167 230 -281 408 -310 304
-51 610 164 675 475 19 90 19 128 -1 223 -31 151 -120 279 -244 350 -130 73
-457 141 -473 98z m233 -62 c286 -72 440 -246 440 -499 0 -143 -53 -268 -160
-375 -107 -108 -240 -164 -385 -163 -215 1 -416 144 -493 352 -36 97 -41 227
-14 318 43 141 162 274 320 357 82 43 90 46 142 40 30 -3 98 -17 150 -30z"/>
<path d="M18356 11809 c-69 -64 -137 -152 -176 -229 l-23 -45 -18 40 c-10 22
-24 61 -30 88 -13 49 -39 65 -39 23 0 -40 19 -128 35 -159 10 -21 12 -34 5
-41 -5 -5 -10 -22 -10 -38 0 -23 -9 -32 -72 -65 -115 -61 -99 -89 20 -33 34
16 62 25 62 21 0 -5 -6 -26 -14 -47 -7 -22 -28 -99 -46 -172 -47 -193 -26
-199 103 -27 33 44 67 95 75 113 9 17 18 32 22 32 3 0 14 -26 25 -57 16 -47
25 -59 44 -61 23 -4 24 -2 18 38 -3 23 -21 67 -40 97 l-34 55 24 26 c12 14 23
31 23 38 0 7 34 29 75 48 48 22 75 41 75 51 0 23 -27 30 -58 14 -15 -7 -30
-15 -34 -17 -4 -2 3 21 17 51 42 96 72 295 46 311 -5 3 -38 -22 -75 -55z m44
-75 c-12 -79 -24 -118 -56 -193 l-24 -53 -35 31 c-20 17 -47 31 -60 31 -14 0
-25 4 -25 9 0 24 196 259 207 247 2 -2 -1 -34 -7 -72z m-148 -241 c28 -25 24
-77 -8 -102 -15 -12 -32 -21 -39 -21 -24 0 -65 41 -65 66 0 29 44 74 73 74 11
0 29 -7 39 -17z"/>
<path d="M17930 10881 c0 -18 52 -51 103 -66 85 -25 167 -17 167 16 0 17 -8
19 -72 19 -46 1 -94 8 -128 20 -63 22 -70 23 -70 11z"/>
<path d="M18012 10761 c6 -32 239 -54 268 -25 23 23 -10 31 -138 36 -119 5
-133 4 -130 -11z"/>
<path d="M9856 6371 c-81 -27 -160 -84 -206 -149 -54 -75 -72 -135 -68 -227 3
-72 2 -76 -17 -70 -11 3 -50 8 -86 12 -91 8 -152 -18 -179 -79 -34 -76 -21
-139 43 -195 84 -74 324 -117 267 -48 -7 8 -23 15 -35 15 -13 0 -52 9 -88 20
-106 33 -164 119 -120 179 17 22 29 26 77 29 64 3 176 -28 211 -58 28 -24 101
-26 114 -2 12 23 5 33 -46 66 -49 30 -58 53 -58 141 0 74 38 158 92 206 47 41
139 83 179 82 85 -2 179 -94 255 -247 27 -56 49 -106 49 -112 0 -6 9 -19 20
-29 29 -26 69 -13 77 25 4 22 20 40 64 69 109 73 210 74 276 4 44 -46 45 -93
3 -133 -32 -29 -38 -58 -18 -78 21 -21 59 -13 86 18 23 27 33 30 82 30 70 0
148 -42 186 -100 18 -27 34 -40 49 -40 73 0 42 104 -51 168 -42 29 -148 55
-189 48 l-32 -6 -5 50 c-4 37 -13 61 -35 88 -90 111 -246 109 -397 -5 l-38
-30 -46 89 c-53 105 -140 212 -203 251 -62 38 -134 44 -213 18z"/>
<path d="M12249 4256 c-45 -16 -87 -48 -111 -84 -33 -49 -19 -57 25 -15 43 43
100 73 137 73 13 0 20 7 20 20 0 23 -19 25 -71 6z"/>
<path d="M12241 4154 c-52 -46 -106 -125 -99 -144 1 -5 19 11 38 37 19 26 58
64 85 85 28 21 50 43 50 50 0 26 -25 16 -74 -28z"/>
<path d="M14105 3401 c-3 -5 16 -26 42 -47 27 -21 70 -64 97 -96 49 -58 76
-66 61 -18 -10 33 -82 108 -134 142 -49 30 -57 33 -66 19z"/>
<path d="M14120 3289 c0 -17 104 -148 118 -148 24 -2 11 31 -40 94 -47 60 -78
81 -78 54z"/>
<path d="M12570 2703 c0 -19 48 -52 147 -103 58 -29 83 -32 83 -10 0 12 -87
67 -161 103 -66 32 -69 32 -69 10z"/>
<path d="M12403 2684 c-7 -20 33 -55 122 -109 63 -37 180 -79 196 -69 19 11 8
35 -21 46 -53 18 -190 87 -235 118 -51 35 -54 35 -62 14z"/>
<path d="M17100 6554 c-153 -40 -291 -145 -358 -271 l-33 -63 -52 35 c-154
104 -393 101 -663 -9 -295 -120 -437 -291 -464 -558 -16 -160 20 -356 97 -520
l35 -77 -35 -43 c-47 -57 -91 -153 -116 -248 -31 -124 -68 -505 -91 -955 -15
-285 -12 -272 -54 -267 -81 9 -170 -53 -217 -152 -32 -68 -52 -150 -47 -198 2
-28 8 -34 31 -36 15 -2 27 -5 27 -7 0 -2 -18 -43 -41 -92 -150 -324 -192 -507
-159 -684 29 -150 153 -301 310 -377 88 -42 198 -76 285 -87 28 -4 84 -21 125
-37 41 -17 107 -39 145 -50 80 -21 292 -48 377 -48 53 0 59 -2 72 -29 77 -148
315 -209 711 -181 94 6 271 15 395 20 280 10 335 23 415 103 50 50 85 121 85
170 0 14 5 17 16 13 10 -4 49 -9 88 -12 133 -12 270 35 365 124 l51 48 68 -4
c97 -6 145 10 202 67 87 87 121 245 100 462 -17 180 -81 417 -140 516 -11 19
-20 36 -20 38 0 2 23 6 51 10 63 9 73 30 65 132 -11 135 -66 231 -158 277 -56
28 -134 35 -184 16 -15 -6 -28 -9 -30 -7 -2 1 -17 93 -34 202 -32 212 -65 399
-106 609 l-25 129 20 86 c38 164 54 317 54 521 0 278 -29 470 -103 693 -136
409 -383 667 -707 741 -90 20 -276 20 -353 0z m74 -53 c3 -5 -1 -14 -10 -21
-11 -10 -18 -10 -27 -1 -9 9 -9 14 3 21 19 12 27 12 34 1z m-300 -156 c-4 -8
-13 -15 -21 -15 -13 0 -13 3 -3 15 7 8 16 15 21 15 5 0 6 -7 3 -15z m144 -20
c-3 -3 -13 -2 -22 1 -14 5 -15 9 -4 15 13 8 36 -6 26 -16z m472 15 c0 -5 -4
-10 -10 -10 -5 0 -10 5 -10 10 0 6 5 10 10 10 6 0 10 -4 10 -10z m-40 -160
c-20 -13 -50 -13 -50 0 0 6 15 10 33 10 24 0 28 -3 17 -10z m-1370 -4 c0 -18
-15 -36 -31 -36 -12 0 -19 7 -19 20 0 15 7 20 25 20 14 0 25 -2 25 -4z m163
-95 c55 -61 60 -74 47 -134 -16 -81 12 -196 70 -276 11 -16 20 -33 20 -38 0
-5 -28 -15 -62 -22 -35 -7 -103 -24 -152 -37 -55 -16 -92 -22 -98 -16 -14 14
-12 238 2 307 20 97 100 255 129 255 5 0 25 -18 44 -39z m1299 -21 c68 -45
152 -139 188 -209 53 -107 72 -196 77 -381 l5 -165 -75 0 -76 -1 -5 81 c-4 44
-7 102 -9 129 -1 32 -7 51 -17 56 -8 4 -25 12 -37 18 -48 25 -374 82 -467 82
l-39 0 6 123 c6 118 7 123 34 145 63 52 284 144 364 151 3 1 26 -12 51 -29z
m-662 -177 l0 -38 -20 33 c-25 40 -25 42 0 42 16 0 20 -7 20 -37z m160 -53 c0
-13 -7 -20 -20 -20 -13 0 -20 7 -20 20 0 13 7 20 20 20 13 0 20 -7 20 -20z
m-1190 -106 c0 -15 -37 -19 -59 -5 -10 7 -8 12 10 24 24 18 49 8 49 -19z
m1341 -124 c46 -5 154 -21 240 -36 l155 -28 16 -469 c16 -460 16 -471 -3 -521
-34 -91 -142 -208 -219 -238 -45 -17 -164 -27 -254 -21 l-88 6 7 86 c4 47 20
194 36 326 33 276 38 256 -65 274 -67 12 -277 15 -337 5 l-36 -6 2 -237 c1
-130 6 -288 10 -352 l8 -116 -134 -10 c-221 -16 -339 11 -409 95 -42 51 -63
129 -110 407 -21 132 -51 292 -66 355 -33 146 -35 234 -8 281 57 99 279 168
639 198 72 6 150 13 175 15 66 6 343 -3 441 -14z m-341 -780 c0 -5 -7 -10 -15
-10 -8 0 -15 5 -15 10 0 6 7 10 15 10 8 0 15 -4 15 -10z m142 -815 c4 -22 10
-50 13 -61 5 -21 1 -22 -73 -26 -55 -2 -89 -9 -119 -25 l-43 -23 0 29 c0 16
-3 42 -6 58 -5 27 -3 30 48 51 55 23 131 41 158 38 8 0 17 -18 22 -41z m623 6
c-8 -14 -45 -14 -45 0 0 5 4 8 8 5 4 -2 14 -1 22 4 17 11 25 6 15 -9z m922
-488 c80 -37 133 -138 133 -253 l0 -57 -69 -11 c-38 -7 -96 -20 -130 -31 l-61
-19 -5 22 c-16 80 -44 341 -36 349 27 27 109 27 168 0z m-3141 -90 c-4 -54 -9
-128 -12 -164 l-6 -66 -66 13 c-37 6 -89 15 -115 19 l-48 6 7 37 c27 155 106
250 207 252 l39 0 -6 -97z m2208 -92 c3 -5 -1 -14 -9 -21 -13 -10 -15 -9 -15
9 0 21 14 28 24 12z m-2289 -179 l61 -7 -18 -155 c-10 -85 -21 -245 -24 -355
-9 -289 18 -417 120 -560 l46 -63 -48 13 c-178 48 -323 153 -384 276 -73 149
-59 302 57 634 28 83 58 169 65 192 12 38 16 41 39 37 14 -3 53 -8 86 -12z
m3284 -93 c72 -161 121 -398 121 -583 0 -190 -40 -296 -129 -343 -57 -30 -158
-34 -145 -5 23 53 43 157 43 227 1 44 -15 223 -35 399 -19 175 -32 322 -27
326 7 8 120 49 134 50 4 0 21 -32 38 -71z m-421 29 c18 -18 15 -40 -5 -36 -10
2 -17 10 -15 16 1 7 -2 12 -8 12 -5 0 -10 5 -10 10 0 14 23 13 38 -2z m-1137
-51 c-1 -12 -15 -9 -19 4 -3 6 1 10 8 8 6 -3 11 -8 11 -12z m789 -27 c0 -5
-10 -10 -22 -10 -19 0 -20 2 -8 10 19 13 30 13 30 0z m-325 -85 c178 -38 281
-142 310 -314 l7 -43 -313 7 c-545 12 -876 -17 -1308 -113 l-24 -5 5 79 c11
198 153 305 474 359 237 39 723 57 849 30z m-1555 -209 c0 -11 -19 -15 -25 -6
-3 5 1 10 9 10 9 0 16 -2 16 -4z m1711 -213 l127 -6 11 -90 c48 -372 2 -587
-142 -672 -82 -47 -140 -55 -499 -67 -397 -12 -587 -3 -683 33 -80 29 -145 94
-174 174 -21 56 -40 183 -41 268 0 34 2 37 30 37 33 0 35 5 45 150 3 47 11 90
18 97 22 22 458 67 732 76 182 6 458 7 576 0z m-1375 -135 c-3 -29 -6 -75 -6
-101 0 -44 -2 -48 -22 -45 -13 2 -23 9 -22 16 1 6 2 50 3 97 1 85 1 85 27 85
26 0 27 -1 20 -52z m1720 36 c-3 -9 -6 -18 -6 -20 0 -3 -4 -3 -10 1 -11 7 -2
35 12 35 6 0 7 -7 4 -16z m-86 -18 c0 -2 -7 -7 -16 -10 -8 -3 -12 -2 -9 4 6
10 25 14 25 6z m-2200 -117 c0 -5 -7 -9 -15 -9 -15 0 -20 12 -9 23 8 8 24 -1
24 -14z m2540 2 c0 -4 -7 -8 -15 -8 -16 0 -20 9 -9 20 8 8 24 -1 24 -12z"/>
<path d="M16004 5319 c-4 -7 -10 -47 -12 -89 -6 -113 28 -217 60 -184 3 3 -1
26 -9 52 -8 26 -16 87 -18 135 -4 91 -7 107 -21 86z"/>
<path d="M16067 5263 c-9 -8 -9 -150 -1 -180 4 -14 14 -23 26 -23 17 0 19 5
14 28 -3 15 -9 62 -12 105 -7 73 -12 86 -27 70z"/>
<path d="M18555 2448 c-3 -8 -4 -59 -3 -114 2 -80 6 -99 18 -99 12 0 15 19 15
109 0 79 -4 111 -12 113 -7 3 -15 -2 -18 -9z"/>
<path d="M18605 2450 c-8 -13 3 -100 15 -119 17 -29 32 1 26 50 -10 75 -24 97
-41 69z"/>
<path d="M17579 1934 c-14 -14 -43 -31 -65 -39 -44 -15 -59 -45 -22 -45 57 1
146 63 135 95 -9 21 -19 19 -48 -11z"/>
<path d="M17616 1859 c-62 -47 -113 -55 -188 -33 -12 4 -18 0 -18 -11 0 -24
48 -37 117 -33 50 3 72 10 105 34 40 28 57 64 33 70 -5 1 -28 -11 -49 -27z"/>
</g>
</svg>
